<mxfile host="app.diagrams.net" modified="2022-11-17T06:38:55.434Z" agent="5.0 (Windows NT 10.0; Win64; x64) AppleWebKit/537.36 (KHTML, like Gecko) Chrome/107.0.0.0 Safari/537.36" etag="CyEWG4TQOQuO4yc1NFZa" version="20.5.3" type="github">
  <diagram id="obd9uNlGTYW_H9cb-l1H" name="第 1 页">
    <mxGraphModel dx="782" dy="436" grid="1" gridSize="10" guides="1" tooltips="1" connect="1" arrows="1" fold="1" page="1" pageScale="1" pageWidth="827" pageHeight="1169" math="0" shadow="0">
      <root>
        <mxCell id="0" />
        <mxCell id="1" parent="0" />
        <mxCell id="9HSBxsYq9GmFd2ajlnAE-1" value="组合模式定义：组合多个对象形成树形结构，以表示部分-整体关系的层次结构。&lt;br&gt;组合模式可以让客户端统一对待多个对象和组合对象" style="text;html=1;strokeColor=none;fillColor=none;align=center;verticalAlign=middle;whiteSpace=wrap;rounded=0;" vertex="1" parent="1">
          <mxGeometry x="81" y="30" width="230" height="110" as="geometry" />
        </mxCell>
        <mxCell id="9HSBxsYq9GmFd2ajlnAE-20" style="edgeStyle=orthogonalEdgeStyle;rounded=0;orthogonalLoop=1;jettySize=auto;html=1;entryX=-0.021;entryY=0.141;entryDx=0;entryDy=0;entryPerimeter=0;startArrow=none;startFill=0;endArrow=open;endFill=0;" edge="1" parent="1" source="9HSBxsYq9GmFd2ajlnAE-2" target="9HSBxsYq9GmFd2ajlnAE-6">
          <mxGeometry relative="1" as="geometry" />
        </mxCell>
        <mxCell id="9HSBxsYq9GmFd2ajlnAE-2" value="client" style="html=1;" vertex="1" parent="1">
          <mxGeometry x="40" y="170" width="110" height="50" as="geometry" />
        </mxCell>
        <mxCell id="9HSBxsYq9GmFd2ajlnAE-3" value="Component" style="swimlane;fontStyle=1;align=center;verticalAlign=top;childLayout=stackLayout;horizontal=1;startSize=26;horizontalStack=0;resizeParent=1;resizeParentMax=0;resizeLast=0;collapsible=1;marginBottom=0;" vertex="1" parent="1">
          <mxGeometry x="310" y="140" width="160" height="124" as="geometry" />
        </mxCell>
        <mxCell id="9HSBxsYq9GmFd2ajlnAE-5" value="" style="line;strokeWidth=1;fillColor=none;align=left;verticalAlign=middle;spacingTop=-1;spacingLeft=3;spacingRight=3;rotatable=0;labelPosition=right;points=[];portConstraint=eastwest;strokeColor=inherit;" vertex="1" parent="9HSBxsYq9GmFd2ajlnAE-3">
          <mxGeometry y="26" width="160" height="8" as="geometry" />
        </mxCell>
        <mxCell id="9HSBxsYq9GmFd2ajlnAE-6" value="+ operation():void&#xa; +getChild(int i):Component&#xa;+add(Component c):void&#xa;+remove(Component c):void" style="text;strokeColor=none;fillColor=none;align=left;verticalAlign=top;spacingLeft=4;spacingRight=4;overflow=hidden;rotatable=0;points=[[0,0.5],[1,0.5]];portConstraint=eastwest;" vertex="1" parent="9HSBxsYq9GmFd2ajlnAE-3">
          <mxGeometry y="34" width="160" height="90" as="geometry" />
        </mxCell>
        <mxCell id="9HSBxsYq9GmFd2ajlnAE-11" style="edgeStyle=orthogonalEdgeStyle;rounded=0;orthogonalLoop=1;jettySize=auto;html=1;entryX=0.238;entryY=1.007;entryDx=0;entryDy=0;entryPerimeter=0;endArrow=block;endFill=0;" edge="1" parent="1" source="9HSBxsYq9GmFd2ajlnAE-7" target="9HSBxsYq9GmFd2ajlnAE-6">
          <mxGeometry relative="1" as="geometry" />
        </mxCell>
        <mxCell id="9HSBxsYq9GmFd2ajlnAE-7" value="Leaf" style="swimlane;fontStyle=1;align=center;verticalAlign=top;childLayout=stackLayout;horizontal=1;startSize=26;horizontalStack=0;resizeParent=1;resizeParentMax=0;resizeLast=0;collapsible=1;marginBottom=0;" vertex="1" parent="1">
          <mxGeometry x="210" y="350" width="160" height="60" as="geometry" />
        </mxCell>
        <mxCell id="9HSBxsYq9GmFd2ajlnAE-9" value="" style="line;strokeWidth=1;fillColor=none;align=left;verticalAlign=middle;spacingTop=-1;spacingLeft=3;spacingRight=3;rotatable=0;labelPosition=right;points=[];portConstraint=eastwest;strokeColor=inherit;" vertex="1" parent="9HSBxsYq9GmFd2ajlnAE-7">
          <mxGeometry y="26" width="160" height="8" as="geometry" />
        </mxCell>
        <mxCell id="9HSBxsYq9GmFd2ajlnAE-10" value="+ operation(): void" style="text;strokeColor=none;fillColor=none;align=left;verticalAlign=top;spacingLeft=4;spacingRight=4;overflow=hidden;rotatable=0;points=[[0,0.5],[1,0.5]];portConstraint=eastwest;" vertex="1" parent="9HSBxsYq9GmFd2ajlnAE-7">
          <mxGeometry y="34" width="160" height="26" as="geometry" />
        </mxCell>
        <mxCell id="9HSBxsYq9GmFd2ajlnAE-16" value="" style="edgeStyle=orthogonalEdgeStyle;rounded=0;orthogonalLoop=1;jettySize=auto;html=1;endArrow=open;endFill=0;startArrow=diamondThin;startFill=0;" edge="1" parent="1" source="9HSBxsYq9GmFd2ajlnAE-12" target="9HSBxsYq9GmFd2ajlnAE-6">
          <mxGeometry relative="1" as="geometry" />
        </mxCell>
        <mxCell id="9HSBxsYq9GmFd2ajlnAE-12" value="Composite" style="swimlane;fontStyle=1;align=center;verticalAlign=top;childLayout=stackLayout;horizontal=1;startSize=26;horizontalStack=0;resizeParent=1;resizeParentMax=0;resizeLast=0;collapsible=1;marginBottom=0;" vertex="1" parent="1">
          <mxGeometry x="480" y="337" width="160" height="120" as="geometry" />
        </mxCell>
        <mxCell id="9HSBxsYq9GmFd2ajlnAE-14" value="" style="line;strokeWidth=1;fillColor=none;align=left;verticalAlign=middle;spacingTop=-1;spacingLeft=3;spacingRight=3;rotatable=0;labelPosition=right;points=[];portConstraint=eastwest;strokeColor=inherit;" vertex="1" parent="9HSBxsYq9GmFd2ajlnAE-12">
          <mxGeometry y="26" width="160" height="8" as="geometry" />
        </mxCell>
        <mxCell id="9HSBxsYq9GmFd2ajlnAE-15" value="+ operation(): void&#xa;+getChild(int i):Component&#xa;+add(Component c):void&#xa;+remove(Componet c):void" style="text;strokeColor=none;fillColor=none;align=left;verticalAlign=top;spacingLeft=4;spacingRight=4;overflow=hidden;rotatable=0;points=[[0,0.5],[1,0.5]];portConstraint=eastwest;" vertex="1" parent="9HSBxsYq9GmFd2ajlnAE-12">
          <mxGeometry y="34" width="160" height="86" as="geometry" />
        </mxCell>
        <mxCell id="9HSBxsYq9GmFd2ajlnAE-17" style="edgeStyle=orthogonalEdgeStyle;rounded=0;orthogonalLoop=1;jettySize=auto;html=1;entryX=0.65;entryY=1;entryDx=0;entryDy=0;entryPerimeter=0;endArrow=block;endFill=0;" edge="1" parent="1" source="9HSBxsYq9GmFd2ajlnAE-15" target="9HSBxsYq9GmFd2ajlnAE-6">
          <mxGeometry relative="1" as="geometry" />
        </mxCell>
        <mxCell id="9HSBxsYq9GmFd2ajlnAE-18" value="children" style="text;align=center;fontStyle=1;verticalAlign=middle;spacingLeft=3;spacingRight=3;strokeColor=none;rotatable=0;points=[[0,0.5],[1,0.5]];portConstraint=eastwest;" vertex="1" parent="1">
          <mxGeometry x="570" y="300" width="80" height="26" as="geometry" />
        </mxCell>
        <mxCell id="9HSBxsYq9GmFd2ajlnAE-19" value="for(Children c:childrens){&lt;br&gt;c.operation();&lt;br&gt;}" style="html=1;" vertex="1" parent="1">
          <mxGeometry x="240" y="470" width="205" height="50" as="geometry" />
        </mxCell>
        <mxCell id="9HSBxsYq9GmFd2ajlnAE-22" value="" style="endArrow=none;html=1;rounded=0;entryX=-0.012;entryY=0.174;entryDx=0;entryDy=0;entryPerimeter=0;exitX=0.598;exitY=0.027;exitDx=0;exitDy=0;exitPerimeter=0;endFill=0;" edge="1" parent="1" source="9HSBxsYq9GmFd2ajlnAE-19" target="9HSBxsYq9GmFd2ajlnAE-15">
          <mxGeometry width="50" height="50" relative="1" as="geometry">
            <mxPoint x="380" y="460" as="sourcePoint" />
            <mxPoint x="430" y="310" as="targetPoint" />
          </mxGeometry>
        </mxCell>
      </root>
    </mxGraphModel>
  </diagram>
</mxfile>
